<?xml version="1.0" standalone="no"?>
<!DOCTYPE svg PUBLIC "-//W3C//DTD SVG 20010904//EN"
 "http://www.w3.org/TR/2001/REC-SVG-20010904/DTD/svg10.dtd">
<svg version="1.0" xmlns="http://www.w3.org/2000/svg"
 width="900.000000pt" height="900.000000pt" viewBox="0 0 900.000000 900.000000"
 preserveAspectRatio="xMidYMid meet">

<g transform="translate(0.000000,900.000000) scale(0.100000,-0.100000)"
fill="#000000" stroke="none">
<path d="M4127 8100 c-98 -59 -182 -111 -185 -115 -4 -4 22 -4 57 0 74 8 76
19 -21 -112 l-68 -93 -1194 0 c-818 0 -1204 -3 -1223 -11 -42 -15 -92 -68
-103 -109 -13 -48 -13 -2182 0 -2231 5 -19 22 -47 37 -62 63 -59 22 -57 977
-57 l874 0 5 -32 c6 -42 2 -48 -32 -48 -15 0 -90 -15 -167 -34 -793 -196
-1181 -473 -1300 -931 -21 -82 -27 -131 -31 -273 -5 -153 9 -467 23 -544 l6
-28 -222 0 -221 0 -355 -316 c-194 -173 -354 -320 -354 -326 0 -7 12 0 28 14
15 14 175 156 355 317 l329 291 217 0 218 0 17 -130 c96 -728 409 -1343 886
-1742 429 -360 984 -548 1615 -548 479 0 904 122 1264 363 63 43 117 77 121
77 4 0 24 -55 45 -122 21 -68 42 -128 47 -135 27 -35 402 -181 590 -228 142
-36 144 -36 176 32 21 47 26 73 27 138 l0 81 70 -43 c38 -24 75 -43 81 -43 17
0 177 108 246 167 176 149 528 467 560 505 51 63 78 109 78 136 0 31 -74 63
-162 69 -63 5 -71 3 -145 -34 -43 -22 -142 -79 -221 -127 -254 -154 -409 -226
-487 -226 -33 0 -192 107 -269 182 l-66 63 54 195 c34 122 71 231 100 290 169
357 177 705 20 1000 -19 35 -34 68 -34 72 0 4 90 8 199 8 217 0 211 2 211 -60
0 -58 8 -60 275 -60 267 0 275 2 275 60 0 61 -2 60 171 60 99 0 159 4 159 10
0 6 -60 10 -161 10 l-161 0 5 33 c3 17 13 91 22 162 16 126 18 131 46 147 36
21 39 60 7 82 -17 12 -49 16 -133 16 l-111 0 -24 81 c-27 95 -27 175 -1 234
11 22 39 84 64 137 27 57 42 100 36 103 -5 4 -23 -24 -40 -62 -17 -37 -46
-100 -65 -139 -19 -39 -34 -79 -35 -90 0 -17 -2 -17 -11 4 -10 20 -28 31 -28
16 0 -3 18 -65 40 -138 22 -73 40 -135 40 -139 0 -4 -45 -7 -100 -7 -89 0
-100 2 -100 18 1 9 7 66 14 127 l13 109 72 67 c40 36 69 69 64 72 -5 3 -36
-19 -70 -48 l-60 -54 -6 55 c-4 36 -22 91 -53 157 -30 62 -48 116 -48 137 0
19 15 70 32 113 36 88 36 90 21 85 -6 -2 -26 -39 -44 -82 -30 -73 -33 -76 -40
-50 -4 16 -10 106 -14 199 -8 162 -9 173 -38 230 l-31 60 38 88 c21 48 33 86
27 85 -13 -4 -48 -69 -66 -121 l-12 -32 -30 45 c-73 109 -113 216 -96 263 10
31 1 50 -13 27 -7 -10 -10 -11 -10 -2 0 6 -6 12 -14 12 -12 0 -12 -7 -1 -50
14 -53 11 -59 -21 -35 -24 18 -34 19 -34 2 0 -8 17 -22 38 -31 30 -14 45 -30
66 -74 16 -31 53 -97 83 -145 30 -49 52 -91 50 -94 -3 -2 -28 7 -56 21 -56 29
-64 31 -59 15 2 -6 35 -27 73 -47 83 -44 82 -41 87 -239 l4 -142 -58 55 c-33
30 -66 54 -74 54 -23 0 -16 -14 22 -39 49 -34 123 -118 131 -150 3 -14 26 -71
51 -126 69 -156 69 -155 -3 -81 -37 36 -71 64 -76 60 -6 -3 18 -36 54 -73 98
-101 100 -106 91 -200 -3 -45 -9 -81 -13 -81 -3 0 -30 34 -59 75 -46 64 -72
90 -72 70 0 -3 24 -40 54 -83 59 -85 75 -128 68 -184 l-4 -38 -114 0 c-101 0
-116 -2 -134 -20 -11 -11 -20 -27 -20 -35 0 -19 35 -55 54 -55 9 0 18 -36 30
-132 9 -73 20 -148 23 -165 l5 -33 -205 0 -205 0 -17 53 c-27 84 -74 176 -111
217 -40 44 -92 70 -188 94 -49 12 -87 30 -134 64 -36 26 -137 93 -226 149
-138 87 -161 105 -159 125 5 55 84 665 88 685 4 18 -2 24 -40 38 -42 16 -69
16 -452 1 -224 -9 -420 -16 -435 -16 -23 0 -29 6 -40 43 -6 23 -17 45 -23 49
-18 14 -78 28 -165 39 -73 10 -93 17 -144 51 -73 50 -216 118 -320 153 -51 17
-89 37 -106 55 -14 15 -45 34 -69 41 -29 9 -40 17 -36 27 3 7 5 16 5 18 0 2
231 4 514 4 l514 0 83 -44 c117 -62 190 -80 324 -79 90 0 124 5 188 26 111 36
202 94 283 179 194 205 237 488 112 747 -31 66 -57 101 -121 166 -45 45 -106
95 -134 111 l-53 29 -1 505 c-1 611 -6 713 -38 758 -49 70 -12 66 -763 72
l-676 5 56 77 c31 43 60 77 63 78 3 0 11 -19 18 -42 32 -105 29 -109 87 107
29 110 54 201 54 203 1 9 -36 -11 -193 -108z m-259 -372 c-14 -18 -49 -66 -78
-105 l-52 -73 -1167 3 -1166 2 0 55 c0 41 6 63 22 86 48 68 -38 64 1277 64
l1188 0 -24 -32z m1552 11 c46 -26 69 -64 77 -127 5 -47 4 -50 -21 -56 -43
-11 -1598 -7 -1594 4 2 6 34 53 72 105 l69 95 680 0 c671 0 680 0 717 -21z
m-1702 -209 c-9 -29 -1030 -1395 -1039 -1392 -5 1 -101 60 -212 132 -112 71
-211 132 -219 135 -12 5 -82 -81 -280 -344 l-263 -350 -48 -1 c-29 0 -46 -4
-42 -10 3 -5 19 -10 36 -10 16 0 29 -3 29 -6 0 -3 -13 -23 -30 -44 -36 -45
-37 -54 -8 -74 55 -39 54 -40 343 345 148 197 274 359 279 359 5 0 107 -63
228 -140 l218 -139 147 197 c80 108 206 278 279 377 74 99 266 358 427 575
l293 395 822 3 822 2 0 -540 c0 -297 -2 -540 -5 -540 -3 0 -40 10 -82 22 -358
99 -738 -127 -819 -488 -22 -102 -15 -261 16 -359 25 -80 89 -183 157 -256
l46 -49 -493 0 c-465 0 -492 1 -485 18 12 29 55 245 55 276 0 16 10 50 22 75
19 39 20 50 11 96 -6 29 -32 97 -57 152 -25 55 -46 109 -46 120 0 32 -28 104
-56 144 -23 34 -24 40 -13 83 22 90 -16 166 -83 166 -18 0 -71 -16 -118 -35
-46 -19 -114 -40 -150 -46 -218 -36 -411 -106 -463 -168 -36 -44 -50 -116 -33
-178 7 -26 21 -75 30 -108 9 -32 16 -93 16 -135 0 -41 4 -92 9 -112 5 -22 5
-38 0 -38 -5 0 -9 -18 -9 -40 0 -23 5 -40 11 -40 7 0 9 10 7 25 -7 34 7 32 22
-4 17 -43 52 -71 96 -78 23 -3 51 -17 69 -34 17 -15 42 -32 56 -38 19 -7 31
-23 42 -55 l16 -46 -876 0 c-975 0 -919 -4 -969 69 l-24 36 0 1052 0 1053
1161 0 c758 0 1160 -3 1157 -10z m1650 -1056 c470 -97 669 -659 367 -1036
-100 -124 -271 -218 -397 -218 -206 1 -413 123 -531 313 -59 97 -89 203 -89
322 -1 121 19 201 74 308 69 132 183 233 333 294 91 37 132 40 243 17z m-318
-19 c0 -7 -51 -31 -80 -39 -14 -3 -2 5 25 18 57 28 55 27 55 21z m-1400 -130
c-52 -108 -168 -165 -334 -165 -113 0 -155 -11 -195 -52 -37 -38 -51 -33 -19
7 34 43 81 57 223 65 148 8 200 25 260 85 20 21 46 58 57 84 11 25 23 40 25
33 3 -6 -5 -32 -17 -57z m1293 54 c-6 -6 -26 -13 -44 -15 -23 -4 -31 -2 -24 4
6 6 24 12 40 15 17 2 32 5 35 6 2 0 -1 -4 -7 -10z m-63 -54 c-7 -8 -27 -14
-46 -13 -42 2 -37 9 13 18 21 4 40 8 42 9 2 0 -2 -6 -9 -14z m-1400 -4 c0 -20
-62 -60 -110 -70 -28 -6 -84 -11 -124 -11 -120 0 -206 -42 -247 -122 -23 -46
-38 -44 -19 2 19 46 95 108 153 125 28 8 87 15 131 15 98 0 145 12 176 45 24
26 40 32 40 16z m1338 -71 c-12 -16 -26 -30 -30 -30 -5 0 -7 -4 -4 -8 7 -12
-29 -63 -39 -55 -4 5 -5 3 -2 -3 3 -6 -6 -46 -20 -90 -34 -103 -38 -273 -9
-374 10 -36 19 -73 19 -82 1 -9 6 -14 11 -11 5 4 7 -3 4 -15 -4 -12 -2 -20 3
-17 4 3 16 -9 25 -27 9 -18 27 -48 41 -66 21 -28 23 -35 11 -50 -11 -15 -11
-16 3 -4 13 10 19 9 29 -3 10 -12 9 -15 -6 -16 -11 0 -31 -3 -46 -5 -24 -4
-33 3 -74 58 -25 35 -57 85 -71 111 -59 117 -79 294 -48 425 19 82 74 196 120
250 30 34 43 42 71 42 l35 0 -23 -30z m-1098 -179 c49 -50 55 -63 114 -251 42
-135 46 -201 17 -341 -34 -163 -58 -201 -163 -254 -110 -55 -143 -48 -214 45
-21 27 -42 50 -46 50 -14 0 10 -36 61 -92 46 -50 51 -53 96 -52 32 1 67 12
116 37 l69 35 0 -53 c0 -48 -3 -56 -35 -84 -68 -60 -110 -74 -195 -68 -67 6
-193 35 -220 52 -5 3 -10 35 -10 69 0 35 -11 108 -25 162 -16 65 -21 100 -14
103 6 2 22 14 37 28 30 27 25 27 -30 -2 -36 -18 -40 -18 -73 -2 -74 35 -122
180 -75 227 24 24 43 18 88 -23 17 -17 32 -26 32 -21 0 6 -4 14 -10 20 -6 6
-6 21 2 42 10 25 10 42 0 77 -10 38 -10 52 3 81 17 41 19 101 6 137 l-9 24
111 6 c125 6 223 32 272 72 17 14 34 25 39 25 5 0 31 -22 56 -49z m1194 -710
c9 -15 -74 -18 -86 -4 -8 10 -1 13 35 13 25 0 48 -4 51 -9z m66 -51 c11 -7 1
-9 -32 -8 -61 2 -83 15 -26 16 24 1 50 -3 58 -8z m175 -87 l40 -13 -50 5 c-27
3 -81 15 -119 28 l-70 22 39 5 c27 3 53 -1 80 -14 22 -11 58 -25 80 -33z
m-1305 16 c61 -26 74 -56 75 -164 0 -66 -4 -89 -25 -128 -24 -47 -124 -167
-139 -167 -5 0 -36 55 -71 121 -49 96 -60 123 -49 130 8 5 17 9 20 9 4 0 35
21 69 46 l62 46 -4 64 c-2 35 0 64 5 64 4 0 30 -9 57 -21z m-660 -68 c-40 -38
-41 -41 -39 -96 l3 -57 -220 -108 c-120 -59 -266 -135 -324 -169 -57 -33 -119
-66 -137 -72 -38 -12 -38 -13 -52 -154 -24 -234 -30 -402 -26 -764 5 -456 -1
-431 128 -536 113 -93 171 -119 251 -113 34 3 84 15 111 27 l49 22 71 -36 c88
-45 163 -65 241 -65 59 0 62 -1 69 -27 11 -45 64 -145 107 -202 23 -30 35 -52
26 -49 -63 25 -192 60 -269 74 -234 44 -588 11 -764 -70 -46 -22 -6 -19 61 4
139 48 249 64 444 64 154 0 202 -4 290 -23 124 -26 226 -60 333 -110 l77 -37
-162 -27 c-89 -15 -167 -32 -173 -38 -11 -13 0 -12 185 21 63 12 180 25 260
29 109 7 182 18 295 44 216 51 267 52 320 6 19 -17 78 -99 130 -183 155 -249
266 -372 437 -483 91 -60 367 -197 638 -318 107 -48 197 -89 199 -91 2 -2 -16
-29 -40 -60 -35 -46 -44 -65 -44 -97 0 -40 -1 -41 -100 -109 -121 -82 -315
-183 -448 -232 -476 -177 -1087 -187 -1626 -25 -896 268 -1510 1038 -1671
2096 -17 116 -38 349 -55 633 -8 126 9 321 36 428 26 99 94 239 157 322 168
222 451 389 877 519 111 34 363 100 383 101 7 0 -6 -18 -28 -39z m104 14 c9
-35 -3 -75 -20 -68 -8 3 -14 1 -14 -5 0 -24 161 -73 286 -87 l61 -7 10 -136
c6 -75 9 -139 6 -142 -10 -10 -182 42 -258 79 -113 55 -162 102 -180 171 -24
92 -20 131 18 167 31 29 65 52 78 53 4 0 10 -11 13 -25z m743 -46 c98 -35 245
-106 283 -137 23 -19 7 -17 -170 20 -107 22 -196 41 -198 43 -6 5 -15 105 -9
105 3 0 45 -14 94 -31z m68 -128 c72 -16 204 -41 295 -56 235 -37 237 -38 249
-82 6 -20 9 -38 8 -40 -2 -1 -69 -5 -150 -9 -105 -5 -147 -11 -147 -19 0 -7
-9 -120 -20 -251 -11 -132 -27 -327 -35 -434 -8 -107 -18 -214 -21 -236 l-5
-42 -57 -4 c-40 -3 -87 -19 -161 -53 -76 -35 -115 -47 -147 -47 -36 1 -49 -4
-77 -31 -18 -18 -42 -44 -52 -59 -19 -25 -26 -27 -160 -37 -77 -6 -211 -10
-298 -8 -143 2 -158 4 -163 21 -11 32 -74 94 -109 106 -32 11 -35 16 -85 163
-82 241 -194 459 -294 572 -49 55 -45 26 5 -37 60 -76 141 -219 192 -338 51
-121 122 -329 114 -336 -3 -3 -25 0 -48 7 -52 14 -158 17 -213 6 -63 -13 -32
-21 72 -18 53 1 108 -2 122 -8 14 -5 20 -10 13 -10 -44 -3 -128 -48 -186 -101
-62 -57 -127 -143 -127 -168 0 -24 16 -10 45 39 17 28 58 77 92 109 74 70 149
102 240 104 56 1 65 -2 93 -29 29 -28 66 -84 58 -89 -2 -2 -25 -13 -51 -25
-73 -35 -105 -82 -164 -238 -43 -114 -49 -139 -37 -146 8 -4 14 -11 14 -16 0
-17 -79 -44 -140 -48 -57 -4 -71 -2 -118 24 -76 41 -190 141 -214 186 -19 37
-20 63 -24 426 -3 369 2 504 27 763 l12 117 66 31 c36 17 108 56 159 86 104
63 454 234 476 234 9 0 18 -14 22 -36 8 -46 78 -102 191 -156 82 -38 214 -78
261 -78 23 0 24 2 18 43 -9 71 -19 212 -14 207 3 -3 29 -51 57 -107 29 -57 56
-105 61 -108 13 -8 102 83 143 145 19 30 41 74 48 98 7 23 17 42 23 42 6 0 70
-13 141 -29z m1463 -176 c-3 -3 -259 -19 -569 -36 -310 -16 -564 -31 -565 -32
-1 -1 -24 -249 -50 -551 -46 -519 -50 -549 -69 -556 -17 -6 -20 -3 -23 24 -3
35 84 1106 91 1112 6 6 865 41 1046 43 79 0 142 -1 139 -4z m-13 -513 c-34
-266 -64 -485 -66 -487 -2 -1 -210 -44 -461 -95 -443 -88 -460 -91 -518 -79
-33 6 -83 9 -111 7 l-51 -5 6 41 c3 22 24 257 46 521 22 264 44 491 48 505 l7
25 575 30 c316 17 578 28 581 25 4 -3 -21 -222 -56 -488z m126 -330 c143 -89
269 -175 265 -180 -2 -2 -66 2 -142 7 -77 6 -174 11 -216 11 -43 0 -78 3 -78
8 0 4 7 54 15 112 8 58 15 108 15 113 0 15 18 6 141 -71z m-1401 -197 c0 -73
-14 -147 -29 -152 -123 -42 -209 -96 -478 -299 -169 -128 -231 -168 -329 -216
-115 -55 -126 -58 -197 -58 -46 0 -99 8 -138 20 -60 18 -170 76 -195 103 -9 9
1 44 38 142 56 147 88 189 172 226 48 21 67 23 286 25 266 2 368 13 383 41 6
10 27 35 47 56 32 31 44 37 80 37 30 0 74 14 143 46 143 65 217 75 217 29z
m465 -215 c28 -16 77 -54 109 -86 64 -62 159 -200 150 -216 -3 -5 -29 25 -56
68 -68 106 -151 186 -238 226 -71 33 -93 56 -42 43 15 -3 50 -19 77 -35z
m1721 -400 c77 -221 69 -472 -24 -726 -29 -79 -69 -161 -57 -117 83 310 95
599 39 918 -8 46 12 9 42 -75z m-1015 13 l295 -5 -13 -51 c-27 -104 -11 -385
35 -615 10 -51 16 -92 13 -91 -3 0 -35 37 -71 81 -86 107 -312 334 -430 432
-52 43 -113 99 -135 125 -42 47 -115 145 -115 153 0 3 28 -2 63 -10 42 -9 155
-16 358 -19z m2072 -1250 c46 -14 63 -33 31 -33 -35 0 -147 -64 -204 -116 -66
-61 -122 -142 -196 -278 -30 -57 -70 -113 -108 -151 -63 -64 -234 -195 -298
-230 -44 -23 -63 -12 -28 17 217 174 290 261 371 437 112 245 177 325 298 367
38 13 56 12 134 -13z m-318 -105 c-25 -34 -62 -96 -82 -137 -125 -266 -121
-260 -217 -356 -50 -50 -122 -117 -160 -148 -63 -51 -72 -56 -90 -44 -12 7
-72 44 -135 82 l-114 69 41 14 c41 13 112 80 112 106 0 20 132 31 143 11 11
-21 26 -19 21 3 -4 13 8 23 46 40 50 23 52 23 66 5 14 -17 15 -16 11 9 -3 21
5 36 44 74 l48 47 7 -29 c9 -38 14 -45 24 -39 4 3 3 23 -2 44 l-10 40 82 85
c46 47 90 95 97 107 12 16 98 78 110 79 2 0 -17 -28 -42 -62z m-171 -102 c-32
-35 -62 -64 -65 -65 -3 0 -3 13 -1 30 4 24 16 38 56 64 28 19 55 34 60 34 5 1
-17 -28 -50 -63z m-698 -7 c10 -12 63 -50 117 -86 l97 -65 0 -65 c0 -108 -41
-164 -133 -182 -42 -7 -49 -5 -123 39 -44 26 -116 68 -161 95 -46 26 -83 54
-83 60 0 18 68 107 105 137 46 38 128 88 146 88 9 0 24 -9 35 -21z m607 -51
c-5 -33 -16 -50 -52 -85 -25 -23 -49 -43 -53 -43 -10 0 -9 69 0 93 6 13 84 69
109 76 0 1 -1 -18 -4 -41z m-133 -88 c0 -27 1 -53 3 -57 2 -9 -73 -53 -90 -53
-14 0 -17 72 -4 104 6 16 63 54 84 56 4 0 7 -22 7 -50z m-931 -15 c134 -61
293 -150 522 -292 126 -78 148 -97 149 -135 0 -4 -24 9 -52 29 -74 50 -155 85
-357 154 -186 63 -285 113 -365 183 l-50 43 23 31 c12 18 24 32 27 32 3 0 49
-20 103 -45z m813 -42 l-4 -61 -48 -7 c-27 -4 -54 -4 -60 0 -5 3 -10 27 -10
53 l0 47 63 15 c34 9 62 15 62 15 1 0 -1 -28 -3 -62z m-909 -49 c94 -74 171
-111 347 -169 175 -57 354 -141 394 -183 25 -27 28 -37 23 -72 -3 -23 -7 -44
-9 -46 -3 -2 -25 15 -49 39 -80 76 -180 119 -452 192 -154 42 -213 71 -283
137 -61 57 -82 105 -62 137 7 12 14 21 16 21 2 0 36 -25 75 -56z"/>
<path d="M1780 7685 c-7 -9 -10 -25 -6 -40 6 -22 11 -26 39 -23 25 2 33 8 35
26 7 44 -41 70 -68 37z"/>
<path d="M1988 7675 c-14 -30 3 -55 37 -55 12 0 28 7 35 15 20 24 -3 65 -35
65 -17 0 -29 -8 -37 -25z"/>
<path d="M2210 7685 c-7 -9 -10 -25 -6 -40 6 -22 11 -26 39 -23 25 2 33 8 35
26 7 44 -41 70 -68 37z"/>
<path d="M1685 7373 c-11 -3 -28 -12 -37 -21 -16 -14 -18 -43 -18 -333 0 -317
0 -318 22 -333 20 -14 97 -16 634 -16 l613 0 20 26 c20 26 21 38 21 320 0 310
-3 333 -47 353 -24 11 -1163 15 -1208 4z m1217 -30 c17 -15 18 -38 18 -324 0
-307 0 -308 -22 -323 -20 -14 -95 -16 -620 -16 -585 0 -598 0 -618 20 -19 19
-20 33 -20 320 0 287 1 301 20 320 20 20 33 20 622 20 546 0 603 -2 620 -17z"/>
<path d="M2420 7020 l0 -250 -40 0 -40 0 0 125 0 125 -75 0 -75 0 0 -125 0
-125 -35 0 -35 0 0 150 0 150 -70 0 -70 0 0 -150 0 -150 -25 0 c-24 0 -25 2
-25 65 l0 65 -70 0 -70 0 0 -65 0 -65 -46 0 c-27 0 -43 -4 -39 -10 4 -6 205
-10 571 -10 369 0 564 3 564 10 0 6 -11 10 -25 10 l-25 0 0 250 0 250 -75 0
-75 0 0 -250 0 -250 -40 0 -40 0 0 250 0 250 -70 0 -70 0 0 -250z m128 -2 l2
-238 -59 0 -59 0 -1 230 c-1 127 1 235 4 241 4 5 30 9 58 7 l52 -3 3 -237z
m222 -8 l0 -240 -55 0 -55 0 0 240 0 240 55 0 55 0 0 -240z m-665 -95 l0 -140
-57 -3 -58 -3 0 139 c0 76 3 142 7 146 4 4 30 6 58 4 l50 -3 0 -140z m215 -30
l0 -115 -55 0 -55 0 0 115 0 115 55 0 55 0 0 -115z m-410 -7 c0 -5 0 -30 0
-58 l0 -50 -55 0 -55 0 0 54 c0 54 0 55 33 59 44 6 78 3 77 -5z"/>
<path d="M4455 7367 c-116 -30 -203 -100 -254 -207 -23 -49 -26 -67 -26 -160
0 -101 1 -108 34 -168 71 -130 181 -196 332 -197 79 0 91 3 163 38 61 31 86
50 122 95 187 237 39 579 -262 606 -34 3 -81 0 -109 -7z m229 -40 c73 -34 127
-85 167 -159 32 -60 34 -68 34 -163 0 -89 -3 -106 -28 -156 -33 -69 -99 -132
-175 -167 -49 -23 -70 -27 -147 -27 -78 0 -98 4 -145 27 -222 109 -274 384
-107 565 100 108 266 142 401 80z"/>
<path d="M4510 7253 c-1 -10 -15 -27 -33 -38 -37 -23 -53 -72 -43 -128 5 -27
25 -54 76 -105 72 -72 86 -106 55 -132 -22 -19 -49 -8 -65 27 -12 27 -21 33
-47 33 -27 0 -33 -4 -33 -21 0 -36 31 -89 61 -105 16 -8 29 -21 29 -29 0 -10
10 -15 30 -15 23 0 30 4 30 20 0 11 6 20 13 20 20 0 56 43 66 78 16 55 -4 97
-80 171 -71 70 -82 96 -53 125 20 21 51 5 60 -29 5 -20 12 -25 40 -25 28 0 34
4 34 20 0 37 -28 90 -54 102 -15 6 -26 19 -26 30 0 25 -60 26 -60 1z"/>
<path d="M1610 6320 c0 -5 25 -10 55 -10 30 0 55 5 55 10 0 6 -25 10 -55 10
-30 0 -55 -4 -55 -10z"/>
<path d="M1638 6113 c18 -2 45 -2 60 0 15 2 0 4 -33 4 -33 0 -45 -2 -27 -4z"/>
<path d="M1610 5910 c0 -5 25 -10 56 -10 34 0 53 4 49 10 -3 6 -28 10 -56 10
-27 0 -49 -4 -49 -10z"/>
<path d="M1943 5600 c0 -25 2 -35 4 -22 2 12 2 32 0 45 -2 12 -4 2 -4 -23z"/>
<path d="M2113 5600 c0 -25 2 -35 4 -22 2 12 2 32 0 45 -2 12 -4 2 -4 -23z"/>
<path d="M2277 5633 c-8 -18 -7 -73 3 -73 5 0 10 18 10 40 0 38 -4 49 -13 33z"/>
<path d="M2447 5633 c-11 -10 -8 -73 3 -73 6 0 10 18 10 40 0 41 -2 45 -13 33z"/>
<path d="M2610 5600 c0 -22 5 -40 10 -40 6 0 10 18 10 40 0 22 -4 40 -10 40
-5 0 -10 -18 -10 -40z"/>
<path d="M2780 5601 c0 -23 5 -41 10 -41 6 0 10 15 10 34 0 19 -4 38 -10 41
-6 4 -10 -10 -10 -34z"/>
<path d="M3967 5633 c-11 -10 -8 -73 3 -73 6 0 10 18 10 40 0 41 -2 45 -13 33z"/>
<path d="M4130 5600 c0 -22 5 -40 10 -40 6 0 10 18 10 40 0 22 -4 40 -10 40
-5 0 -10 -18 -10 -40z"/>
<path d="M4300 5601 c0 -23 5 -41 10 -41 6 0 10 15 10 34 0 19 -4 38 -10 41
-6 4 -10 -10 -10 -34z"/>
<path d="M4467 5633 c-11 -10 -8 -73 3 -73 6 0 10 18 10 40 0 41 -2 45 -13 33z"/>
<path d="M5161 6337 l-43 -10 6 -38 c5 -33 3 -41 -17 -54 -44 -28 -72 -93 -71
-165 0 -124 66 -207 229 -290 49 -25 106 -61 127 -81 32 -30 38 -42 38 -77 0
-48 -26 -72 -76 -72 -37 0 -69 32 -79 80 -8 36 -17 36 -90 9 -64 -24 -68 -36
-31 -115 28 -61 79 -103 144 -119 40 -10 47 -16 50 -39 4 -36 19 -40 83 -23
53 14 54 14 51 49 -2 30 4 41 42 79 51 51 71 109 63 181 -13 105 -78 177 -235
257 -125 65 -164 105 -160 164 2 35 8 44 32 56 25 12 31 11 55 -6 14 -11 32
-38 39 -61 l13 -41 65 25 c35 13 67 24 70 24 9 0 -7 63 -27 101 -10 20 -34 50
-54 67 -33 29 -49 37 -99 44 -13 2 -23 15 -28 36 -9 36 -20 38 -97 19z m83
-59 c3 -12 15 -18 33 -18 34 0 99 -34 96 -49 -2 -6 2 -10 8 -8 13 2 58 -79 59
-104 0 -11 -16 -22 -47 -32 -26 -9 -49 -14 -51 -12 -2 2 -4 20 -5 41 -1 20 -3
32 -5 26 -1 -5 -13 0 -26 11 -12 12 -21 25 -19 28 4 9 -69 -6 -94 -19 -31 -17
-40 -73 -18 -121 17 -38 78 -85 191 -145 50 -27 51 -28 50 -76 -1 -26 -5 -46
-10 -42 -5 3 -7 -2 -3 -11 8 -22 4 -21 -41 6 -20 13 -68 39 -107 58 -85 41
-166 119 -183 176 -24 81 -4 218 30 197 6 -4 8 -3 5 3 -4 6 0 16 8 23 8 7 15
9 15 4 0 -5 7 1 15 12 10 15 12 30 6 50 -7 28 -6 30 33 40 43 11 44 11 60 -38z
m41 -739 c-3 -4 1 -6 8 -6 6 0 27 -3 46 -8 33 -8 33 -9 28 -52 -2 -24 -7 -47
-10 -50 -11 -11 -74 8 -114 34 -42 27 -78 79 -85 122 -2 19 4 26 42 40 l44 16
23 -44 c12 -25 20 -48 18 -52z m169 -125 c3 -8 2 -12 -4 -9 -6 3 -10 10 -10
16 0 14 7 11 14 -7z"/>
<path d="M3656 5935 c-30 -22 -13 -28 23 -8 29 17 33 17 61 1 30 -17 40 -12
18 10 -16 16 -79 15 -102 -3z"/>
<path d="M3389 5875 c-15 -8 -29 -21 -33 -30 -8 -21 8 -19 29 5 12 14 31 20
59 20 30 0 37 3 26 10 -21 14 -50 12 -81 -5z"/>
<path d="M3594 5843 c2 -10 7 -29 11 -43 19 -73 26 -81 97 -104 17 -5 15 -24
-7 -78 -4 -10 -3 -18 2 -18 14 0 33 46 33 79 0 25 -5 30 -34 35 -43 8 -61 29
-77 94 -7 28 -17 52 -22 52 -4 0 -6 -8 -3 -17z"/>
<path d="M3707 5843 c-12 -11 -8 -48 7 -68 13 -18 14 -18 26 4 18 35 -9 88
-33 64z"/>
<path d="M3454 5797 c-10 -28 0 -72 19 -75 13 -3 17 4 17 31 0 39 -26 70 -36
44z"/>
<path d="M3490 5569 c0 -20 40 -88 70 -118 49 -48 109 -39 162 24 29 33 21 40
-46 40 -51 0 -75 6 -125 32 -33 17 -61 27 -61 22z m174 -70 c25 -2 46 -6 46
-9 0 -13 -46 -49 -71 -55 -30 -7 -80 29 -104 75 l-14 28 48 -19 c27 -10 69
-19 95 -20z"/>
<path d="M3039 2541 c-109 -41 -199 -82 -199 -92 0 -12 -1 -13 81 25 41 18
104 43 142 56 37 12 67 26 67 31 0 13 -6 11 -91 -20z"/>
<path d="M5027 4372 c-39 -43 -51 -161 -21 -207 48 -74 136 31 120 143 -10 74
-60 107 -99 64z"/>
<path d="M5872 7499 c-148 -24 -267 -128 -317 -278 -26 -80 -18 -206 19 -288
35 -77 122 -163 203 -201 52 -24 70 -27 163 -27 98 0 109 2 171 32 80 39 159
120 197 200 24 52 27 70 27 163 0 97 -2 110 -32 172 -77 163 -253 255 -431
227z m66 -30 c-167 -24 -314 -173 -336 -339 -10 -73 1 -166 28 -229 27 -64 -3
-25 -39 49 -22 48 -26 68 -26 150 0 83 4 103 27 153 36 76 86 140 105 133 8
-3 11 -1 8 4 -9 15 88 70 150 83 11 3 47 5 80 5 l60 0 -57 -9z m168 -30 c64
-16 136 -84 176 -167 31 -63 33 -73 33 -172 0 -96 -3 -110 -29 -165 -37 -74
-108 -145 -183 -182 -53 -25 -68 -28 -163 -28 -97 0 -109 2 -152 27 -56 33
-99 84 -136 158 -24 49 -27 66 -27 155 0 87 3 107 26 156 66 139 198 228 342
229 38 0 88 -5 113 -11z"/>
<path d="M6032 7360 c-7 -11 -23 -20 -36 -20 -35 0 -82 -44 -102 -95 -20 -53
-11 -102 37 -197 37 -74 38 -131 1 -136 -37 -6 -55 16 -48 60 6 37 6 37 -35
48 -52 14 -60 6 -66 -57 -4 -39 0 -55 20 -85 16 -23 23 -45 20 -57 -4 -17 2
-24 32 -37 31 -13 39 -13 46 -2 5 7 9 16 9 21 0 4 12 7 28 7 72 0 141 92 128
172 -4 22 -22 71 -42 110 -19 39 -36 84 -36 101 -1 38 26 61 54 46 19 -10 20
-27 2 -72 -4 -10 7 -17 40 -26 25 -6 47 -11 49 -11 9 0 27 62 27 89 0 14 -10
42 -22 61 -12 19 -21 45 -19 56 2 16 -6 24 -30 33 -42 14 -42 14 -57 -9z m55
-18 c8 -5 9 -13 3 -22 -5 -8 -5 -19 0 -25 6 -8 5 -18 -3 -30 -12 -15 -17 -16
-36 -5 -34 17 -67 5 -82 -31 -11 -27 -10 -39 3 -75 15 -42 8 -81 -13 -69 -5 3
-6 -2 -3 -12 3 -10 -4 -3 -16 16 -63 98 -19 231 77 231 23 0 33 5 33 15 0 16
18 19 37 7z m-229 -385 c2 -38 -11 -77 -28 -77 -14 0 -32 69 -26 96 5 19 12
25 29 22 17 -2 22 -11 25 -41z m179 -29 c-3 -8 -6 -5 -6 6 -1 11 2 17 5 13 3
-3 4 -12 1 -19z"/>
<path d="M7290 6388 l-1 -33 -24 30 c-35 43 -42 24 -11 -30 27 -45 27 -47 16
-123 -18 -123 -120 -407 -139 -386 -4 5 -38 55 -75 112 -38 57 -74 102 -83
102 -14 0 -14 -2 1 -22 51 -70 137 -206 142 -225 3 -12 -4 -51 -16 -85 -34
-100 -36 -207 -7 -388 34 -205 41 -280 32 -337 l-7 -47 -33 63 c-66 124 -135
218 -135 184 0 -3 22 -40 49 -82 26 -42 63 -105 81 -140 38 -77 38 -92 -15
-273 -47 -159 -53 -241 -30 -358 11 -49 22 -90 27 -90 11 0 9 26 -7 94 l-14
60 44 85 c25 47 69 118 100 158 30 40 50 75 45 78 -13 8 -96 -100 -148 -193
l-43 -77 5 55 c3 30 22 113 41 183 19 71 42 170 51 220 18 108 42 154 144 280
40 49 69 92 65 95 -9 9 -86 -76 -145 -160 l-48 -68 -7 58 c-3 31 -17 124 -31
207 -23 144 -30 248 -18 290 3 11 48 51 100 90 86 63 108 85 86 85 -5 0 -44
-27 -88 -59 -43 -33 -80 -58 -82 -56 -5 5 37 123 78 220 36 85 81 217 94 277
4 17 28 44 66 74 70 55 71 81 0 29 -26 -19 -50 -35 -52 -35 -2 0 -1 26 3 58
11 83 10 112 -1 112 -5 0 -10 -15 -10 -32z"/>
<path d="M1345 4465 c0 -346 1 -487 2 -312 2 175 2 459 0 630 -1 172 -2 29 -2
-318z"/>
<path d="M1344 3600 c0 -74 1 -105 3 -67 2 37 2 97 0 135 -2 37 -3 6 -3 -68z"/>
</g>
</svg>
